<svg width="217" height="48" viewBox="0 0 217 48" fill="none" xmlns="http://www.w3.org/2000/svg">
<g clip-path="url(#clip0_77_2952)">
<path d="M28.82 20.1C28.94 24.5 28.86 37.7 28.72 38.22L38.44 48C38.44 41.66 38.44 35.36 38.44 29.08L47.86 38.56C47.86 29.24 47.86 19.98 47.86 10.74H38.5V20.1H28.8H28.82Z" fill="#0C38B1"/>
<path d="M37.16 9.34V0C27.94 0 18.7 0 9.44 0L18.76 9.42C12.52 9.42 6.26 9.42 0 9.42L9.66 19.2C9.62 19.16 9.58 19.1 9.54 19.06C15.7 19 21.74 18.94 27.74 18.88V9.32H37.14L37.16 9.34Z" fill="#0C38B1"/>
<path d="M62.8799 30.72H76.6399V28.5H65.1599V19.58H76.6399V17.36H65.1599V10.24H76.7399V8.02002H62.8799V30.74V30.72Z" fill="white"/>
<path d="M82.0599 7.73999H79.9199V27.22C79.9199 28.46 80.1999 29.38 80.7599 29.96C81.3199 30.54 82.2599 30.8 83.5199 30.8H84.9799V28.88H83.5199C82.9599 28.88 82.5599 28.76 82.3399 28.52C82.1199 28.28 81.9999 27.84 81.9999 27.22L82.0399 15.74H85.4199V13.9H82.0399V7.73999H82.0599Z" fill="white"/>
<path d="M100.48 14.4399C99.4999 13.7999 98.3999 13.4799 97.1399 13.4799C95.8799 13.4799 94.7799 13.7599 93.7199 14.3399C92.6599 14.9199 91.6999 15.7799 90.8399 16.9199V7.41992H88.6799V30.7199H90.8399V24.5599C90.8399 22.3399 90.9399 20.8199 91.1399 19.9799C91.4599 18.6999 92.1599 17.6399 93.1799 16.7599C94.2199 15.8999 95.3799 15.4599 96.6999 15.4599C98.0199 15.4599 98.7599 15.7399 99.4799 16.2999C100.18 16.8599 100.68 17.6999 100.94 18.8199C101.1 19.4599 101.18 20.7599 101.18 22.6999V30.7199H103.34V22.0599C103.34 19.7599 103.1 18.0799 102.64 16.9999C102.18 15.9199 101.46 15.0599 100.48 14.4199V14.4399Z" fill="white"/>
<path d="M121.42 16.74C119.7 14.56 117.42 13.48 114.56 13.48C111.7 13.48 109.56 14.54 107.9 16.66C106.6 18.32 105.94 20.22 105.94 22.36C105.94 24.5 106.72 26.66 108.26 28.46C109.8 30.26 111.94 31.16 114.7 31.16C117.46 31.16 117.04 30.98 118.02 30.6C119 30.22 119.88 29.68 120.66 28.96C121.44 28.24 122.14 27.3 122.74 26.12L120.92 25.16C120.26 26.26 119.64 27.06 119.08 27.54C118.52 28.04 117.82 28.42 117.02 28.72C116.2 29.02 115.38 29.16 114.52 29.16C112.74 29.16 111.26 28.54 110.06 27.28C108.86 26.04 108.22 24.44 108.18 22.48H123.3C123.28 20.18 122.66 18.26 121.44 16.74H121.42ZM108.38 20.62C108.82 19.08 109.48 17.92 110.34 17.14C111.52 16.08 112.94 15.54 114.6 15.54C116.26 15.54 116.56 15.76 117.46 16.18C118.36 16.6 119.1 17.16 119.64 17.84C120.2 18.52 120.62 19.46 120.9 20.6H108.38V20.62Z" fill="white"/>
<path d="M130.44 14.2C129.7 14.68 129.02 15.4 128.36 16.36V13.9H126.16V30.7H128.36V25.02C128.36 22.1 128.5 20.16 128.76 19.22C129.12 17.98 129.62 17.06 130.28 16.46C130.96 15.86 131.64 15.58 132.36 15.58C133.08 15.58 133.04 15.68 133.5 15.88L134.62 14.06C133.94 13.68 133.3 13.48 132.7 13.48C132.1 13.48 131.14 13.72 130.42 14.2H130.44Z" fill="white"/>
<path d="M164.54 15.52C167.1 15.52 169.12 16.5 170.6 18.46L172.32 17.4C171.82 16.56 171.2 15.86 170.48 15.32C169.76 14.78 168.88 14.34 167.84 14C166.8 13.66 165.74 13.5 164.62 13.5C162.86 13.5 161.24 13.9 159.82 14.68C158.38 15.46 157.26 16.56 156.44 17.94C155.62 19.34 155.22 20.84 155.22 22.48C155.22 24.9 156.1 26.96 157.84 28.64C159.58 30.32 161.8 31.18 164.46 31.18C167.12 31.18 167.74 30.84 169.08 30.18C170.44 29.52 171.52 28.58 172.32 27.36L170.6 26.24C169.04 28.2 167.02 29.18 164.56 29.18C162.1 29.18 162 28.88 160.92 28.28C159.84 27.68 158.98 26.84 158.36 25.76C157.74 24.68 157.42 23.52 157.42 22.3C157.42 20.42 158.1 18.82 159.44 17.5C160.8 16.18 162.5 15.52 164.54 15.52Z" fill="white"/>
<path d="M189.5 17C188.66 15.82 187.68 14.94 186.56 14.36C185.44 13.78 184.2 13.48 182.82 13.48C180.44 13.48 178.38 14.34 176.7 16.06C175 17.78 174.16 19.86 174.16 22.28C174.16 24.7 175 26.86 176.68 28.58C178.36 30.3 180.4 31.16 182.78 31.16C185.16 31.16 185.36 30.88 186.48 30.32C187.6 29.76 188.62 28.94 189.52 27.84V30.72H191.66V13.92H189.52V17.02L189.5 17ZM188.8 25.84C188.24 26.86 187.42 27.66 186.36 28.26C185.3 28.86 184.18 29.16 183 29.16C181.82 29.16 180.74 28.86 179.7 28.26C178.68 27.66 177.86 26.82 177.26 25.74C176.66 24.66 176.34 23.52 176.34 22.34C176.34 21.16 176.64 20.02 177.24 18.94C177.84 17.88 178.66 17.04 179.68 16.44C180.7 15.84 181.8 15.56 183.02 15.56C184.9 15.56 186.46 16.22 187.74 17.52C189.02 18.82 189.66 20.46 189.66 22.4C189.66 24.34 189.38 24.82 188.8 25.84Z" fill="white"/>
<path d="M196.78 7.41992H194.62V30.7199H196.78V7.41992Z" fill="white"/>
<path d="M212.18 27.52C211.62 28.02 210.92 28.4 210.12 28.7C209.32 29 208.48 29.14 207.62 29.14C205.84 29.14 204.36 28.52 203.16 27.26C201.96 26.02 201.32 24.42 201.3 22.46H216.42C216.4 20.16 215.78 18.24 214.56 16.72C212.84 14.54 210.56 13.46 207.7 13.46C204.84 13.46 202.7 14.52 201.04 16.64C199.72 18.3 199.08 20.2 199.08 22.34C199.08 24.48 199.86 26.64 201.4 28.44C202.94 30.24 205.08 31.14 207.84 31.14C210.6 31.14 210.18 30.96 211.16 30.58C212.14 30.2 213.02 29.66 213.8 28.94C214.58 28.22 215.28 27.28 215.88 26.1L214.06 25.14C213.4 26.24 212.78 27.04 212.22 27.52H212.18ZM203.46 17.14C204.64 16.08 206.06 15.54 207.72 15.54C209.38 15.54 209.68 15.76 210.58 16.18C211.48 16.6 212.22 17.16 212.76 17.84C213.32 18.52 213.74 19.46 214.02 20.6H201.5C201.94 19.06 202.6 17.9 203.46 17.12V17.14Z" fill="white"/>
<path d="M151.44 21.2199L139.92 15.3599C139.12 14.9799 138.58 13.9999 138.58 12.8799C138.58 11.7599 139.54 9.89988 140.72 9.89988H151.76L151.84 7.87988H140.72C138.52 7.87988 136.74 10.1199 136.74 12.8799C136.74 15.6399 137.72 16.7399 139.24 17.4999L150.76 23.3599C151.58 23.7799 152.1 24.7799 152.1 25.8799C152.1 26.9799 151.1 28.8399 149.9 28.8399H137.58V30.8799H149.92C152.12 30.8799 153.9 28.6399 153.9 25.8799C153.9 23.1199 152.96 22.0199 151.42 21.2199H151.44Z" fill="white"/>
</g>
<defs>
<clipPath id="clip0_77_2952">
<rect width="216.4" height="48" fill="white"/>
</clipPath>
</defs>
</svg>
